<?xml version="1.0" encoding="utf-8"?><svg xml:space="preserve" viewBox="0 0 100 100" y="0" x="0" xmlns="http://www.w3.org/2000/svg" id="圖層_1" version="1.1" width="47px" height="47px" xmlns:xlink="http://www.w3.org/1999/xlink" style="width:100%;height:100%;background-size:initial;background-repeat-y:initial;background-repeat-x:initial;background-position-y:initial;background-position-x:initial;background-origin:initial;background-image:initial;background-color:rgb(255, 255, 255);background-clip:initial;background-attachment:initial;animation-play-state:paused" ><g class="ldl-scale" style="transform-origin:50% 50%;transform:rotate(0deg) scale(0.8, 0.8);animation-play-state:paused" ><ellipse stroke-miterlimit="10" stroke-width="3.5" stroke-linecap="round" stroke="#333" fill="#666" ry="6.9" rx="25.9" cy="75.4" cx="50" style="stroke:rgb(51, 51, 51);fill:rgb(102, 102, 102);animation-play-state:paused" ></ellipse>
<path stroke-miterlimit="10" stroke-linecap="round" stroke-width="3.5" stroke="#333" fill="#a0c8d7" d="M65.1 49.5c.3-.4.7-.9 1-1.3.1-.1.1-.2.2-.3.3-.5.6-.9.9-1.4 0-.1.1-.2.1-.2.3-.5.5-1 .7-1.6 0 0 0 0 0 0 .2-.5.4-1.1.6-1.6 0-.1.1-.2.1-.2.2-.5.3-1.1.4-1.6 0-.1 0-.2.1-.3.1-.6.2-1.1.3-1.7V39c.1-.6.1-1.2.1-1.8 0 0 0 0 0 0V37v-1-.5c0-.2 0-.4-.1-.6 0-.1 0-.3-.1-.4 0-.3-.1-.7-.2-1 0-.2-.1-.3-.1-.5l-.3-1.2c-.1-.2-.1-.4-.2-.6-.1-.3-.2-.6-.3-1-.1-.2-.1-.3-.2-.5-.1-.4-.3-.7-.5-1-.1-.1-.1-.2-.2-.3-.2-.4-.4-.8-.7-1.2 0 0 0-.1-.1-.1-1.7-2.7-4-5-6.7-6.6 0 0 0 0 0 0-.4-.2-.8-.5-1.3-.7-.1 0-.2-.1-.3-.1-.4-.2-.8-.4-1.2-.5-.1 0-.3-.1-.4-.1-.3-.1-.7-.2-1-.3-.2-.1-.3-.1-.5-.2l-1.2-.3c-.2 0-.3-.1-.5-.1-.3-.1-.7-.1-1-.2-.1 0-.3 0-.4-.1h-4c-.1 0-.3 0-.4.1-.4 0-.7.1-1 .2-.2 0-.3.1-.5.1l-1.2.3c-.2 0-.4.1-.5.2-.3.1-.7.2-1 .3-.1 0-.3.1-.4.1-.4.2-.8.3-1.2.5-.1 0-.2.1-.3.1-.4.2-.9.4-1.3.7 0 0 0 0 0 0-2.7 1.6-5 3.9-6.7 6.6 0 0 0 .1-.1.1-.2.4-.5.8-.7 1.2-.1.1-.1.2-.2.3-.2.3-.3.7-.5 1-.1.2-.1.3-.2.5-.1.3-.2.6-.3 1-.1.2-.1.4-.2.6l-.3 1.2c0 .2-.1.3-.1.5-.1.3-.1.7-.2 1 0 .1 0 .3-.1.4 0 .2 0 .4-.1.6v1.7s0 0 0 0c0 .6 0 1.2.1 1.8v.3c.1.6.1 1.1.3 1.7 0 .1 0 .2.1.3.1.6.3 1.1.4 1.6 0 .1.1.2.1.2.2.6.4 1.1.6 1.6 0 0 0 0 0 0 .2.5.5 1 .8 1.6 0 .1.1.2.1.2.3.5.5.9.9 1.4.1.1.1.2.2.3.3.4.6.9 1 1.3 0 .1.1.1.2.2.4.4.7.8 1.1 1.2l.1.1c1.4 1.4 2.6 2.9 3.7 4.5 0 0 0 0 0 0 .3.4.5.8.8 1.2 0 0 0 0 0 0 .2.4.5.8.7 1.2v.1l.6 1.2v.1l.6 1.2s0 .1.1.1c.1.3.2.5.3.8 0 .1.1.2.1.4 1 2.7 1.6 5.5 1.8 8.4.3 1.1.8 2.2 1.4 3.1.8 1.1 2.2 1.9 3.6 2.1 1.4-.3 2.8-1 3.6-2.1.7-.9 1.1-2 1.4-3.1.2-2.9.8-5.7 1.8-8.4 0-.1.1-.2.1-.4.1-.3.2-.5.3-.8v-.1l.6-1.2v-.1l.6-1.2v-.1c.2-.4.5-.8.7-1.2 0 0 0 0 0 0 .2-.4.5-.8.8-1.2 0 0 0 0 0 0 1.1-1.6 2.3-3.1 3.7-4.5l.1-.1c.4-.4.8-.8 1.1-1.2-.1-.1-.1-.1 0-.2zm-8.4-8.8c-.2.4-.5.8-.8 1.2-.5.6-1 1.1-1.6 1.5-1.2.8-2.7 1.3-4.3 1.3h0c-1.6 0-3.1-.5-4.3-1.3-.6-.4-1.2-.9-1.6-1.5-.3-.4-.6-.8-.8-1.2-.6-1.1-.9-2.3-.9-3.7s.3-2.6.9-3.7c.2-.4.5-.8.8-1.2.5-.6 1-1.1 1.6-1.5 1.2-.8 2.7-1.3 4.3-1.3h0c1.6 0 3.1.5 4.3 1.3.6.4 1.2.9 1.6 1.5.3.4.6.8.8 1.2.6 1.1.9 2.3.9 3.7s-.3 2.6-.9 3.7z" style="stroke:rgb(51, 51, 51);fill:rgb(160, 200, 215);animation-play-state:paused" ></path>
<metadata xmlns:d="https://loading.io/stock/" style="animation-play-state:paused" ><d:name style="animation-play-state:paused" >location</d:name>


<d:tags style="animation-play-state:paused" >location,place,locality,marker,landmark,waypoint,gps</d:tags>


<d:license style="animation-play-state:paused" >by</d:license>


<d:slug style="animation-play-state:paused" >2k6e2a</d:slug></metadata></g><!-- generated by https://loading.io/ --></svg>